<?xml version="1.0" ?><svg height="64px" version="1.1" viewBox="0 0 64 64" width="64px" xmlns="http://www.w3.org/2000/svg" xmlns:xlink="http://www.w3.org/1999/xlink"><title/><desc/><g fill="none" fill-rule="evenodd" id="Menu-4" stroke="none" stroke-width="1">
    <path d="M15.5,19 L47.5,19 C48.8807119,19 50,20.1192881 50,21.5 C50,22.8807119 48.8807119,24 47.5,24 L15.5,24 C14.1192881,24 13,22.8807119 13,21.5 C13,20.1192881 14.1192881,19 15.5,19 Z" fill="#662021" id="Rectangle"/>
    <path d="M14.8243243,29 L38.1756757,29 C39.1832222,29 40,30.1192881 40,31.5 C40,32.8807119 39.1832222,34 38.1756757,34 L14.8243243,34 C13.8167778,34 13,32.8807119 13,31.5 C13,30.1192881 13.8167778,29 14.8243243,29 Z" fill="#662021" id="Rectangle"/>
    <path d="M15.5,39 L47.5,39 C48.8807119,39 50,40.1192881 50,41.5 C50,42.8807119 48.8807119,44 47.5,44 L15.5,44 C14.1192881,44 13,42.8807119 13,41.5 C13,40.1192881 14.1192881,39 15.5,39 Z" fill="#662021" id="Rectangle"/>
</g></svg>